# xmcd
#
# Track frame offsets:
#	150
#	15150
#	30214
#	42879
#	56999
#	68362
#	83107
#	96746
#	111599
#	126767
#	140147
#	153672
#	170096
#	181111
#	193337
#
# Disc length: 2793 seconds
#
# Revision: 0
# Processed by: cddbd v1.5.2PL0 Copyright (c) Steve Scherf et al.
# Submitted via: EasyCDDAExtractor 16.0.6.1
#
DISCID=d10ae70f
DTITLE=Διάφοροι - Του αετού ο Γιός Τα καλύτερα ζεϊμπέκικα Cd1
DYEAR=2012
DGENRE=Λαϊκά
TTITLE0=Μ΄ένα παράπονο (Γρ.Μπιθικώτσης)
TTITLE1=Τώρα που φεύγω απ΄τη ζωή (Στέλιος Καζαντζίδης and Μαρινέλλα)
TTITLE2=Ο ταξιτζής (Στράτος Διονυσίου)
TTITLE3=Αν δεν είχα και σένα (Γιάννης Πάριος)
TTITLE4=Μη καλέ μου (Σταμάτης Κόκοτας)
TTITLE5=Τι έκανα για πάρτυ μου (Μαρινέλλα)
TTITLE6=Ο τρελός (Μανώλης Μητσιάς)
TTITLE7=Συννεφιές (Λίτσα Διαμάντη)
TTITLE8=Πέρνα κι εσύ (Νότης Σφακιανάκης)
TTITLE9=Φαντάσου (Πασχάλης Τερζής)
TTITLE10=Δεν πάω πουθενά (Βασίλης Καρράς)
TTITLE11=Αν είσαι αγάπη (Γιάννης Πλούταρχος)
TTITLE12=Το λεβεντόπαιδο (Γιάννης Καλατζής)
TTITLE13=Με τα φώτα νυσταγμένα (Οι νταλίκες)(Γιώγος Σαρρής)
TTITLE14=Το ζεϊμπέκικο της Ευδικίας (Μάνος Λοΐζος Ορχηστρικό)
EXTD=
EXTT0=
EXTT1=
EXTT2=
EXTT3=
EXTT4=
EXTT5=
EXTT6=
EXTT7=
EXTT8=
EXTT9=
EXTT10=
EXTT11=
EXTT12=
EXTT13=
EXTT14=
PLAYORDER=
